# xmcd
#
# Track frame offsets:
#	182
#	13420
#	26047
#	37845
#	48695
#	61802
#	74962
#	102642
#	129185
#	144402
#	167882
#	180000
#	193965
#	207537
#	218457
#	233115
#
# Disc length: 3247
#
# Revision: 2
# Processed by: cddbd v1.5.1PL0 Copyright (c) Steve Scherf et al.
# Submitted via: CDex 1.51
# Normalized: r1:TRMNUM
#
DISCID=ee0cad10
DTITLE=Stan Getz - The Best Of The  Roost Years
DYEAR=1991
DGENRE=Jazz
TTITLE0=Gone With The Wind
TTITLE1=Yesterdays
TTITLE2=Hershey Bar
TTITLE3=Imagination
TTITLE4=Split Kick
TTITLE5=It Might As Well Be Spring
TTITLE6=Parker '51
TTITLE7=Signal
TTITLE8=Everything Happens To Me
TTITLE9=Budo
TTITLE10=Potter's Luck
TTITLE11=Wild Wood
TTITLE12=Autumn Leaves
TTITLE13=Lullaby Of Birdland
TTITLE14=Moonlight In Vermont
TTITLE15=Sometimes I'm Happy
EXTD=YEAR: 1991
EXTT0=
EXTT1=
EXTT2=
EXTT3=
EXTT4=
EXTT5=
EXTT6=
EXTT7=
EXTT8=
EXTT9=
EXTT10=
EXTT11=
EXTT12=
EXTT13=
EXTT14=
EXTT15=
PLAYORDER=
